# xmcd
#
# Track frame offsets:
#	150
#	15824
#	31123
#	57222
#	81821
#	105295
#	124944
#	141668
#	156892
#	174291
#	191615
#	213439
#	233613
#	251912
#	273511
#	294735
#
# Disc length: 4204 seconds
#
# Revision: 0
# Processed by: cddbd v1.5.2PL0 Copyright (c) Steve Scherf et al.
# Submitted via: EasyCDDAExtractor 16.0.9.1
#
DISCID=d9106a10
DTITLE=george lam - WE Love Lam Greatest Hits 100首(6CD)
DYEAR=2007
DGENRE=普通流行樂
TTITLE0=莫再悲
TTITLE1=愛情故事
TTITLE2=水中蓮
TTITLE3=阿喲心聲
TTITLE4=石像
TTITLE5=我愛你
TTITLE6=愛到發燒
TTITLE7=吖嗚婆
TTITLE8=邁步向前
TTITLE9=心肝寶貝
TTITLE10=床上的法國煙
TTITLE11=每一個晚上
TTITLE12=追憶
TTITLE13=誰能明白我
TTITLE14=零時十分
TTITLE15=十分十二吋
EXTD=YEAR: 2007\n
EXTT0=
EXTT1=
EXTT2=
EXTT3=
EXTT4=
EXTT5=
EXTT6=
EXTT7=
EXTT8=
EXTT9=
EXTT10=
EXTT11=
EXTT12=
EXTT13=
EXTT14=
EXTT15=
PLAYORDER=
